<svg width="720" height="180" viewBox="0 0 720 180" fill="none" xmlns="http://www.w3.org/2000/svg">
<path d="M166.231 140L150.508 123.929H121.882V140H166.231Z" fill="#111827"/>
<path d="M107 40H123.156V139.95C118.216 140.519 107 136.232 107 124.779C107 113.327 107 79.0331 107 40Z" fill="#111827"/>
<path d="M130.216 58.75H196.888L183.494 74.9048H130.216V58.75Z" fill="#0F6BAE"/>
<path d="M153.73 74.2262H169.886V138.363L153.73 121.548V74.2262Z" fill="#0F6BAE"/>
<path d="M123.073 123.977L123.073 116.19L123.073 116.208L123.221 117.232L123.37 117.827L123.519 118.274L123.739 118.795L123.888 119.167L124.186 119.762L124.412 120.208L124.71 120.655L125.007 120.952L125.305 121.25L125.603 121.548L125.9 121.845L126.269 122.143L126.644 122.44L127.091 122.738L127.314 122.887L127.537 123.036L127.722 123.11L127.906 123.184L128.278 123.333L128.65 123.482L129.097 123.631L130.436 123.977L123.073 123.977Z" fill="#111827"/>
<path d="M228.728 107V72.92H234.968V105.08L231.56 101.576H251.144V107H228.728ZM262.853 107.576C260.165 107.576 258.005 106.968 256.373 105.752C254.741 104.504 253.925 102.776 253.925 100.568C253.925 98.36 254.613 96.632 255.989 95.384C257.365 94.136 259.461 93.24 262.277 92.696L270.773 91.016C270.773 89.192 270.357 87.832 269.525 86.936C268.693 86.008 267.461 85.544 265.829 85.544C264.357 85.544 263.189 85.896 262.325 86.6C261.493 87.272 260.917 88.248 260.597 89.528L254.357 89.24C254.869 86.52 256.117 84.44 258.101 83C260.085 81.528 262.661 80.792 265.829 80.792C269.477 80.792 272.229 81.72 274.085 83.576C275.973 85.4 276.917 88.024 276.917 91.448V100.76C276.917 101.432 277.029 101.896 277.253 102.152C277.509 102.408 277.877 102.536 278.357 102.536H279.173V107C278.981 107.064 278.661 107.112 278.213 107.144C277.797 107.176 277.365 107.192 276.917 107.192C275.861 107.192 274.917 107.032 274.085 106.712C273.253 106.36 272.613 105.768 272.165 104.936C271.717 104.072 271.493 102.904 271.493 101.432L272.021 101.816C271.765 102.936 271.205 103.944 270.341 104.84C269.509 105.704 268.453 106.376 267.173 106.856C265.893 107.336 264.453 107.576 262.853 107.576ZM264.101 103.112C265.477 103.112 266.661 102.84 267.653 102.296C268.645 101.752 269.413 101 269.957 100.04C270.501 99.08 270.773 97.944 270.773 96.632V95.192L264.149 96.536C262.773 96.824 261.781 97.256 261.173 97.832C260.597 98.376 260.309 99.096 260.309 99.992C260.309 100.984 260.629 101.752 261.269 102.296C261.941 102.84 262.885 103.112 264.101 103.112ZM282.203 107V81.368H287.771L287.963 87.656L287.387 87.368C287.675 85.992 288.171 84.824 288.875 83.864C289.611 82.872 290.491 82.12 291.515 81.608C292.571 81.064 293.723 80.792 294.971 80.792C297.147 80.792 298.907 81.416 300.251 82.664C301.595 83.88 302.443 85.56 302.795 87.704H301.979C302.267 86.2 302.763 84.952 303.467 83.96C304.171 82.936 305.051 82.152 306.107 81.608C307.195 81.064 308.411 80.792 309.755 80.792C311.515 80.792 313.035 81.176 314.315 81.944C315.595 82.68 316.571 83.768 317.243 85.208C317.947 86.648 318.299 88.424 318.299 90.536V107H312.155V92.12C312.155 90.008 311.787 88.424 311.051 87.368C310.347 86.312 309.259 85.784 307.787 85.784C306.795 85.784 305.947 86.04 305.243 86.552C304.539 87.064 303.995 87.816 303.611 88.808C303.259 89.768 303.083 90.936 303.083 92.312V107H297.371V92.312C297.371 90.2 297.051 88.584 296.411 87.464C295.771 86.344 294.667 85.784 293.099 85.784C292.107 85.784 291.259 86.04 290.555 86.552C289.883 87.064 289.339 87.816 288.923 88.808C288.539 89.768 288.347 90.936 288.347 92.312V107H282.203ZM337.394 107.576C335.602 107.576 334.034 107.192 332.69 106.424C331.378 105.656 330.354 104.584 329.618 103.208L329.474 107H323.618V72.92H329.762V85.016C330.466 83.832 331.474 82.84 332.786 82.04C334.098 81.208 335.634 80.792 337.394 80.792C339.602 80.792 341.506 81.352 343.106 82.472C344.738 83.56 345.986 85.112 346.85 87.128C347.746 89.112 348.194 91.464 348.194 94.184C348.194 96.904 347.746 99.272 346.85 101.288C345.986 103.272 344.738 104.824 343.106 105.944C341.506 107.032 339.602 107.576 337.394 107.576ZM336.002 102.584C337.762 102.584 339.17 101.848 340.226 100.376C341.282 98.872 341.81 96.808 341.81 94.184C341.81 91.528 341.282 89.464 340.226 87.992C339.202 86.52 337.81 85.784 336.05 85.784C334.738 85.784 333.602 86.12 332.642 86.792C331.714 87.432 330.994 88.376 330.482 89.624C330.002 90.872 329.762 92.392 329.762 94.184C329.762 95.912 330.002 97.416 330.482 98.696C330.994 99.944 331.714 100.904 332.642 101.576C333.57 102.248 334.69 102.584 336.002 102.584ZM363.089 107.576C360.529 107.576 358.305 107.032 356.417 105.944C354.529 104.824 353.073 103.256 352.049 101.24C351.025 99.224 350.513 96.872 350.513 94.184C350.513 91.496 351.025 89.16 352.049 87.176C353.073 85.16 354.513 83.592 356.369 82.472C358.257 81.352 360.449 80.792 362.945 80.792C365.377 80.792 367.505 81.336 369.329 82.424C371.185 83.512 372.609 85.08 373.601 87.128C374.593 89.176 375.089 91.64 375.089 94.52V95.912H356.897C357.025 98.152 357.633 99.848 358.721 101C359.841 102.12 361.313 102.68 363.137 102.68C364.513 102.68 365.649 102.376 366.545 101.768C367.473 101.128 368.113 100.248 368.465 99.128L374.753 99.512C374.049 102.008 372.657 103.976 370.577 105.416C368.529 106.856 366.033 107.576 363.089 107.576ZM356.897 91.784H368.753C368.625 89.704 368.033 88.168 366.977 87.176C365.921 86.152 364.577 85.64 362.945 85.64C361.313 85.64 359.953 86.168 358.865 87.224C357.809 88.28 357.153 89.8 356.897 91.784ZM378.932 107V81.368H384.692L384.932 88.472L384.404 88.376C384.788 85.912 385.508 84.136 386.564 83.048C387.652 81.928 389.124 81.368 390.98 81.368H393.332V86.648H390.932C389.62 86.648 388.532 86.84 387.668 87.224C386.804 87.608 386.148 88.216 385.7 89.048C385.284 89.848 385.076 90.904 385.076 92.216V107H378.932ZM406.057 107C403.497 107 401.609 106.408 400.393 105.224C399.209 104.04 398.617 102.184 398.617 99.656V75.368H404.761V99.08C404.761 100.264 405.017 101.096 405.529 101.576C406.041 102.024 406.841 102.248 407.929 102.248H411.529V107H406.057ZM394.585 86.12V81.368H411.529V86.12H394.585ZM422.569 107C420.009 107 418.121 106.408 416.905 105.224C415.721 104.04 415.129 102.184 415.129 99.656V75.368H421.273V99.08C421.273 100.264 421.529 101.096 422.041 101.576C422.553 102.024 423.353 102.248 424.441 102.248H428.041V107H422.569ZM411.097 86.12V81.368H428.041V86.12H411.097Z" fill="#111827"/>
<path d="M447.784 107V78.344H437.416V72.92H464.344V78.344H454.024V107H447.784ZM474.563 107.576C472.003 107.576 469.779 107.032 467.891 105.944C466.003 104.824 464.547 103.256 463.523 101.24C462.499 99.224 461.987 96.872 461.987 94.184C461.987 91.496 462.499 89.16 463.523 87.176C464.547 85.16 465.987 83.592 467.843 82.472C469.731 81.352 471.923 80.792 474.419 80.792C476.851 80.792 478.979 81.336 480.803 82.424C482.659 83.512 484.083 85.08 485.075 87.128C486.067 89.176 486.563 91.64 486.563 94.52V95.912H468.371C468.499 98.152 469.107 99.848 470.195 101C471.315 102.12 472.787 102.68 474.611 102.68C475.987 102.68 477.123 102.376 478.019 101.768C478.947 101.128 479.587 100.248 479.939 99.128L486.227 99.512C485.523 102.008 484.131 103.976 482.051 105.416C480.003 106.856 477.507 107.576 474.563 107.576ZM468.371 91.784H480.227C480.099 89.704 479.507 88.168 478.451 87.176C477.395 86.152 476.051 85.64 474.419 85.64C472.787 85.64 471.427 86.168 470.339 87.224C469.283 88.28 468.627 89.8 468.371 91.784ZM501.542 107.576C498.982 107.576 496.758 107.032 494.87 105.944C492.982 104.824 491.51 103.256 490.454 101.24C489.43 99.224 488.918 96.872 488.918 94.184C488.918 91.496 489.43 89.16 490.454 87.176C491.51 85.16 492.982 83.592 494.87 82.472C496.758 81.352 498.982 80.792 501.542 80.792C503.718 80.792 505.654 81.176 507.35 81.944C509.046 82.712 510.422 83.816 511.478 85.256C512.566 86.664 513.238 88.392 513.494 90.44L507.158 90.776C506.902 89.144 506.262 87.912 505.238 87.08C504.246 86.216 503.014 85.784 501.542 85.784C499.558 85.784 498.022 86.536 496.934 88.04C495.846 89.512 495.302 91.56 495.302 94.184C495.302 96.84 495.846 98.904 496.934 100.376C498.022 101.848 499.558 102.584 501.542 102.584C503.046 102.584 504.294 102.152 505.286 101.288C506.31 100.424 506.934 99.08 507.158 97.256L513.494 97.544C513.238 99.592 512.582 101.368 511.526 102.872C510.47 104.376 509.094 105.544 507.398 106.376C505.702 107.176 503.75 107.576 501.542 107.576ZM516.821 107V72.92H522.965V87.224H522.197C522.453 85.752 522.965 84.552 523.733 83.624C524.501 82.664 525.445 81.96 526.565 81.512C527.685 81.032 528.917 80.792 530.261 80.792C532.149 80.792 533.733 81.208 535.013 82.04C536.325 82.84 537.301 83.976 537.941 85.448C538.613 86.92 538.949 88.616 538.949 90.536V107H532.805V92.024C532.805 89.944 532.453 88.392 531.749 87.368C531.045 86.312 529.941 85.784 528.437 85.784C526.773 85.784 525.445 86.328 524.453 87.416C523.461 88.504 522.965 90.088 522.965 92.168V107H516.821Z" fill="#0F6BAE"/>
</svg>
