<svg width="180" height="180" viewBox="0 0 180 180" fill="none" xmlns="http://www.w3.org/2000/svg">
<path d="M113.631 153L93.8205 132.75H57.7514V153H113.631Z" fill="#111827"/>
<path d="M39 27H59.3565V152.938C53.1318 153.654 39 148.252 39 133.822C39 119.392 39 76.1817 39 27Z" fill="#111827"/>
<path d="M68.2522 50.625H152.258L135.382 70.98H68.2522V50.625Z" fill="#0F6BAE"/>
<path d="M97.8794 70.125H118.236V150.938L97.8794 129.75V70.125Z" fill="#0F6BAE"/>
<path d="M59.2515 132.811L59.2515 123L59.2515 123.022L59.439 124.312L59.6265 125.062L59.814 125.625L60.0912 126.281L60.2788 126.75L60.6538 127.5L60.9391 128.062L61.3142 128.625L61.6892 129L62.0642 129.375L62.4392 129.75L62.8143 130.125L63.279 130.5L63.7518 130.875L64.3144 131.25L64.5956 131.437L64.8769 131.625L65.1093 131.719L65.3416 131.812L65.8104 132L66.2792 132.187L66.8417 132.375L68.5294 132.811L59.2515 132.811Z" fill="#111827"/>
</svg>
