<svg width="32" height="32" viewBox="0 0 32 32" fill="none" xmlns="http://www.w3.org/2000/svg">
<path d="M22.2676 27.4L18.7459 23.8H12.3336V27.4H22.2676Z" fill="#111827"/>
<path d="M8.99999 5H12.6189V27.3889C11.5123 27.5163 8.99999 26.556 8.99999 23.9906C8.99999 21.4252 8.99999 13.7434 8.99999 5Z" fill="#111827"/>
<path d="M14.2004 9.2H29.1348L26.1346 12.8187H14.2004V9.2Z" fill="#0F6BAE"/>
<path d="M19.4674 12.6667H23.0864V27.0333L19.4674 23.2667V12.6667Z" fill="#0F6BAE"/>
<path d="M12.6003 23.8108L12.6003 22.0667L12.6003 22.0706L12.6336 22.3L12.6669 22.4333L12.7003 22.5333L12.7496 22.65L12.7829 22.7333L12.8496 22.8667L12.9003 22.9667L12.967 23.0667L13.0336 23.1333L13.1003 23.2L13.167 23.2667L13.2336 23.3333L13.3163 23.4L13.4003 23.4667L13.5003 23.5333L13.5503 23.5667L13.6003 23.6L13.6416 23.6167L13.683 23.6333L13.7663 23.6667L13.8496 23.7L13.9496 23.7333L14.2497 23.8108L12.6003 23.8108Z" fill="#111827"/>
</svg>
